<svg width="23" height="24" viewBox="0 0 23 24" fill="none" xmlns="http://www.w3.org/2000/svg">
<path d="M1.21053 24C0.889475 24 0.581573 23.8736 0.354555 23.6485C0.127537 23.4235 0 23.1183 0 22.8V1.2C0 0.88174 0.127537 0.576515 0.354555 0.351472C0.581573 0.126428 0.889475 0 1.21053 0H18.1579C18.4789 0 18.7868 0.126428 19.0139 0.351472C19.2409 0.576515 19.3684 0.88174 19.3684 1.2V4.8H16.9474V2.4H2.42105V21.6H16.9474V19.2H19.3684V22.8C19.3684 23.1183 19.2409 23.4235 19.0139 23.6485C18.7868 23.8736 18.4789 24 18.1579 24H1.21053ZM16.9474 16.8V13.2H8.47368V10.8H16.9474V7.2L23 12L16.9474 16.8Z" fill="white"/>
</svg>
