<svg width="96" height="96" viewBox="0 0 96 96" fill="none" xmlns="http://www.w3.org/2000/svg">
<rect x="6.75" y="6.75" width="82.5" height="82.5" fill="#8C11BE"/>
<path d="M23.625 24.5763V23.4375H30.6233L41.577 46.6699L40.3219 49.555H35.3775L23.625 24.5763ZM45.1142 38.5841H44.9621L42.4138 44.7339L39.1429 37.749L45.1142 23.4375H52.3407V49.555H45.1142V38.5841ZM23.625 28.3345L30.6233 43.2154V49.555H23.625V28.3345ZM62.4868 49.4411C60.2048 49.4411 58.6707 48.7451 57.8847 47.3532C57.5297 46.7458 57.2889 46.0118 57.1621 45.1514C57.0352 44.2656 56.9719 43.1901 56.9719 41.9247V30.1946H64.0082V38.9637C64.0082 40.3051 64.0209 41.1907 64.0462 41.621C64.097 42.2791 64.173 42.7346 64.2744 42.9876C64.3758 43.2661 64.5407 43.4432 64.7689 43.5191C64.9971 43.5697 65.4027 43.595 65.9859 43.595H66.3663V48.3022C65.3521 49.0615 64.0589 49.4411 62.4868 49.4411ZM65.1112 57.375C63.7927 57.375 62.2459 57.2991 60.471 57.1472L58.265 56.9195V52.0224H63.3616C64.2744 52.0224 65.1619 51.9972 66.024 51.9465C66.6325 51.8959 67.0762 51.7694 67.3552 51.5669C67.6594 51.3898 67.8369 51.0734 67.8876 50.6179C67.9384 50.0105 67.9637 49.3651 67.9637 48.6818V30.1946H75V47.4291C75 49.4538 74.9112 51.0228 74.7338 52.1363C74.5816 53.2499 74.214 54.1736 73.6308 54.9075C72.9715 55.7427 71.97 56.3627 70.6261 56.7676C69.2822 57.1725 67.444 57.375 65.1112 57.375Z" fill="white"/>
<path d="M25.9249 69.1675C26.0472 69.7168 26.1472 70.1452 26.2249 70.4528L26.3416 70.9307H29.3082L26.9416 59.5938H23.625L24.975 65.2787L25.4749 67.3549L25.9249 69.1675Z" fill="white"/>
<path d="M30.0915 59.5938L28.8415 65.2622L30.0081 70.9307H30.1915L30.3248 70.3869L30.6581 68.9533C30.7025 68.7665 30.747 68.5688 30.7915 68.3601C30.847 68.1514 30.9025 67.9317 30.9581 67.701L31.1414 66.8606L31.7081 64.3724H31.8081C31.997 65.1854 32.197 66.0147 32.4081 66.8606L32.9081 68.9533L33.258 70.3869L33.3914 70.9307H36.2413L33.508 59.5938H30.0915Z" fill="white"/>
<path d="M36.5746 59.5938L35.5746 65.1634L36.9579 70.9307H37.1579L37.2746 70.4528L37.5912 69.1675C37.669 68.805 37.8135 68.2008 38.0246 67.3549L38.5245 65.2787L39.8912 59.5938H36.5746Z" fill="white"/>
<path d="M45.0004 65.1139C45.0226 65.2348 45.0337 65.438 45.0337 65.7236V70.9307H48.117V65.9214C48.117 65.1963 48.0781 64.6306 48.0003 64.2241C47.9336 63.8177 47.7836 63.4826 47.5503 63.219C47.2837 62.9333 46.8837 62.7246 46.3504 62.5928C45.8281 62.461 45.1004 62.3951 44.1671 62.3951C42.956 62.3951 41.8283 62.4939 40.7839 62.6917V64.8338L41.6672 64.7844C42.1227 64.7404 42.6171 64.7185 43.1504 64.7185C43.706 64.7185 44.0671 64.724 44.2338 64.7349C44.5115 64.7569 44.7004 64.7953 44.8004 64.8503C44.9115 64.9052 44.9782 64.9931 45.0004 65.1139Z" fill="white"/>
<path d="M40.8672 70.4199C41.2338 70.8373 41.8005 71.046 42.5671 71.046C42.956 71.046 43.2838 71.0131 43.5504 70.9472C43.8282 70.8922 44.0893 70.7714 44.3337 70.5846V68.9039H44.1671C43.9893 68.9039 43.8227 68.8929 43.6671 68.8709C43.556 68.86 43.4727 68.816 43.4171 68.7391C43.3727 68.6842 43.3393 68.6128 43.3171 68.5249C43.306 68.437 43.3004 68.3107 43.3004 68.1459C43.3004 67.9372 43.306 67.7999 43.3171 67.7339C43.3282 67.5362 43.4449 67.4318 43.6671 67.4209C43.7449 67.4099 43.9115 67.4044 44.1671 67.4044H44.3337V65.9378L42.9338 65.9049C42.3894 65.9049 41.9505 65.9488 41.6172 66.0367C41.2838 66.1136 41.0228 66.2509 40.8339 66.4487C40.645 66.6354 40.5116 66.8936 40.4339 67.2231C40.3561 67.5417 40.3172 67.9646 40.3172 68.4919C40.3172 69.3488 40.5005 69.9914 40.8672 70.4199Z" fill="white"/>
<path d="M53.0606 58.6875H49.9772V70.9307H53.0606V58.6875Z" fill="white"/>
<path d="M58.0406 58.6875H54.9574V70.9307H58.0406V58.6875Z" fill="white"/>
<path d="M64.6212 65.9049H63.4545V67.4044H67.5211V66.7453C67.5211 65.7786 67.4929 65.0535 67.4377 64.5702C67.3929 64.0868 67.2596 63.6913 67.0377 63.3837C66.793 63.0322 66.4096 62.7795 65.8878 62.6257C65.3763 62.472 64.643 62.3951 63.6878 62.3951H63.4545V64.4878H63.6878C63.8988 64.4878 64.0597 64.5042 64.1712 64.5372C64.2821 64.5592 64.3712 64.6196 64.4378 64.7185C64.5597 64.8942 64.6212 65.2897 64.6212 65.9049Z" fill="white"/>
<path d="M61.6046 70.8153C62.1931 70.9801 62.9988 71.0625 64.0212 71.0625C64.5321 71.0625 64.9764 71.046 65.3545 71.0131C66.132 70.9691 66.743 70.8812 67.1877 70.7494V68.6238L66.3378 68.6897C66.0154 68.7226 65.4987 68.7391 64.7878 68.7391C64.3878 68.7391 64.0097 68.7281 63.6545 68.7061C63.3764 68.6952 63.1712 68.6457 63.0379 68.5578C62.9155 68.481 62.8379 68.3656 62.8045 68.2118C62.7712 68.047 62.7545 67.7779 62.7545 67.4044V62.428C62.0322 62.4829 61.4598 62.6148 61.0379 62.8235C60.6265 63.0212 60.3213 63.3013 60.1213 63.6639C59.9432 63.9934 59.8265 64.3944 59.7713 64.8668C59.7156 65.3281 59.688 65.9543 59.688 66.7453C59.688 67.6021 59.7265 68.2777 59.8046 68.7721C59.8822 69.2554 60.0489 69.6619 60.3046 69.9914C60.5931 70.3649 61.0265 70.6396 61.6046 70.8153Z" fill="white"/>
<path d="M70.0502 62.5269H68.4835V64.8503H75V62.5269H73.1334V60.0881H70.0502V62.5269Z" fill="white"/>
<path d="M73.1334 65.5094H70.0502V70.9307H73.1334V65.5094Z" fill="white"/>
</svg>
